<?xml version="1.0" encoding="utf-8"?>
<!-- Generator: Adobe Illustrator 22.0.1, SVG Export Plug-In . SVG Version: 6.00 Build 0)  -->
<svg version="1.1" id="Layer_1" xmlns="http://www.w3.org/2000/svg" xmlns:xlink="http://www.w3.org/1999/xlink" x="0px" y="0px"
	 viewBox="0 0 218.06 41.11" style="enable-background:new 0 0 218.06 41.11;" xml:space="preserve">
<style type="text/css">
	.st0{fill:#FFFFFF;}
	.st1{fill:#00539B;}
</style>
<g id="bug">
	<path class="st0" d="M36.06,0H5.09C3.74,0,2.46,0.52,1.5,1.47C0.53,2.43,0,3.68,0,5.01v31.08c0,1.36,0.54,2.63,1.51,3.57
		c0.96,0.93,2.23,1.44,3.58,1.44h30.98c2.76,0,5.01-2.25,5.01-5.01V5.01c0-1.32-0.53-2.57-1.48-3.53C38.64,0.53,37.38,0,36.06,0
		L36.06,0z"/>
	<path class="st1" d="M21.57,19.53l0-17.5c1.5,0.35,2.61,1.69,2.61,3.3v11.59h15.56V5.01c0-1.99-1.68-3.68-3.68-3.68H19.5l0,18.2h0
		H2.01c0.35-1.5,1.69-2.61,3.3-2.61h11.59V1.33H5.09c-2.07,0-3.76,1.69-3.76,3.68V21.6l18.18,0l0,17.5c-1.5-0.35-2.61-1.69-2.61-3.3
		V24.21H1.33v11.88c0,2.07,1.69,3.68,3.76,3.68h16.48l0-18.18h17.5c-0.35,1.5-1.69,2.61-3.3,2.61H24.18v15.57h11.88
		c1.99,0,3.68-1.61,3.68-3.68V19.53H21.57z"/>
</g>
<g id="font">
	<path class="st0" d="M95.8,30.47l1.97,0.2v1.28h-5.83v-1.3l1.4-0.16c0.34-0.04,0.4-0.15,0.53-0.43l1.01-2.3l-3.63-8.36
		c-0.1-0.24-0.18-0.28-0.42-0.34l-0.81-0.18v-1.3h4.85v1.3l-1.29,0.16l2.47,6.09h0.08c2.24-4.14,3.58-12.21,11.7-12.21
		c3.09,0,5.56,1.94,5.56,4.73c0,2.79-1.61,4.71-4.81,4.82c-0.6,0.02-1.27,0.02-2.45-0.04v3.52c0,0.32,0.02,0.36,0.32,0.4l2.82,0.16
		v1.26h-6.98V26.5l1.24-0.14c0.28-0.04,0.32-0.1,0.32-0.39v-4.8v-0.19v-3.6c0.62-0.31,1.42-0.65,2.27-0.78l0.02,4.17l1.56-0.04
		c1.72,0,3.29-0.37,3.29-2.91c0-1.87-1.35-2.58-3.23-2.58C101.72,15.23,100.84,19.01,95.8,30.47L95.8,30.47z"/>
	<path class="st0" d="M59.68,15.29c0-0.3-0.04-0.37-0.32-0.4l-1.24-0.14v-1.26h5.26v1.26l-1.32,0.16c-0.3,0.04-0.32,0.08-0.32,0.37
		v7.57c0,3.55-1.99,5.14-5.4,5.14c-3.77,0-5.31-1.73-5.31-5.2v-7.51c0-0.3-0.04-0.37-0.31-0.4l-1.24-0.14v-1.26h5.5v1.26l-1.32,0.16
		c-0.3,0.04-0.32,0.08-0.32,0.37v7.18c0,2.5,0.87,3.63,3.12,3.63c2.23,0,3.21-0.93,3.21-3.57V15.29L59.68,15.29z"/>
	<path class="st0" d="M70.21,27.76v-1.24l0.99-0.12c0.28-0.04,0.32-0.16,0.32-0.4v-4.57c0-1.18-0.14-2.17-1.4-2.17
		c-1,0-2.05,0.55-2.7,1.03v5.68c0,0.31,0.02,0.35,0.32,0.39l1.04,0.14v1.26h-4.89v-1.28l0.95-0.12c0.28-0.04,0.32-0.1,0.32-0.39
		v-6.35c0-0.22-0.06-0.36-0.26-0.42l-1.08-0.37l0.2-1.26h2.92l0.16,1.08l0.08,0.02c1.1-0.75,2.27-1.3,3.69-1.3
		c2.13,0,2.94,1.34,2.94,3.61v4.99c0,0.31,0.02,0.35,0.31,0.39l1.09,0.14v1.26H70.21L70.21,27.76z"/>
	<path class="st0" d="M78.88,15.64c-0.95,0-1.48-0.53-1.48-1.48c0-0.93,0.53-1.44,1.48-1.44c0.93,0,1.48,0.51,1.48,1.44
		C80.36,15.11,79.81,15.64,78.88,15.64L78.88,15.64z M76.49,27.76v-1.24l1.19-0.16c0.27-0.04,0.31-0.1,0.31-0.39v-6.35
		c0-0.22-0.06-0.36-0.25-0.42l-1.08-0.37l0.2-1.26h3.41v8.4c0,0.31,0.02,0.35,0.31,0.39l1.16,0.14v1.26H76.49L76.49,27.76z"/>
	<path class="st0" d="M89.73,27.31C88.92,27.69,87.86,28,86.82,28c-2.07,0-2.94-0.91-2.94-2.86v-5.75c0-0.12,0-0.2-0.16-0.2H82.3
		v-1.4c1.54-0.2,2.15-1.24,2.4-2.98h1.44v2.56c0,0.14,0,0.2,0.16,0.2h2.86v1.62h-3.02v5.36c0,1.22,0.31,1.68,1.42,1.68
		c0.59,0,1.2-0.16,1.71-0.34L89.73,27.31L89.73,27.31z"/>
	<path class="st0" d="M121.5,22.64c0-2.5-0.85-3.55-2.53-3.55c-1.68,0-2.68,1.04-2.68,3.56c0,2.53,0.9,3.67,2.6,3.67
		C120.58,26.33,121.5,25.22,121.5,22.64L121.5,22.64z M113.93,22.78c0-3.27,1.64-5.4,5.1-5.4c3.48,0,4.81,2.15,4.81,5.15
		c0,3.31-1.54,5.48-5.01,5.48C115.23,28,113.93,25.79,113.93,22.78L113.93,22.78z"/>
	<path class="st0" d="M127.29,15.64c-0.95,0-1.48-0.53-1.48-1.48c0-0.93,0.54-1.44,1.48-1.44c0.93,0,1.48,0.51,1.48,1.44
		C128.77,15.11,128.22,15.64,127.29,15.64L127.29,15.64z M124.91,27.76v-1.24l1.18-0.16c0.28-0.04,0.31-0.1,0.31-0.39v-6.35
		c0-0.22-0.06-0.36-0.25-0.42l-1.08-0.37l0.2-1.26h3.41v8.4c0,0.31,0.02,0.36,0.32,0.39l1.16,0.14v1.26H124.91L124.91,27.76z"/>
	<path class="st0" d="M137.85,27.76v-1.24l0.99-0.12c0.27-0.04,0.31-0.16,0.31-0.39v-4.57c0-1.18-0.14-2.17-1.4-2.17
		c-1.01,0-2.05,0.55-2.7,1.02v5.68c0,0.31,0.02,0.36,0.32,0.39l1.04,0.14v1.26h-4.89v-1.28l0.94-0.12c0.28-0.04,0.31-0.1,0.31-0.39
		v-6.35c0-0.22-0.05-0.36-0.25-0.42l-1.09-0.37l0.2-1.26h2.92l0.16,1.08l0.08,0.02c1.1-0.75,2.26-1.3,3.69-1.3
		c2.13,0,2.94,1.34,2.94,3.61v4.99c0,0.31,0.02,0.36,0.31,0.39l1.09,0.14v1.26H137.85L137.85,27.76z"/>
	<path class="st0" d="M150.77,27.31c-0.81,0.37-1.87,0.69-2.92,0.69c-2.07,0-2.94-0.91-2.94-2.86v-5.75c0-0.12,0-0.2-0.15-0.2h-1.42
		v-1.4c1.54-0.2,2.15-1.24,2.41-2.98h1.44v2.56c0,0.14,0,0.2,0.16,0.2h2.86v1.62h-3.02v5.36c0,1.22,0.31,1.68,1.42,1.68
		c0.58,0,1.2-0.16,1.71-0.34L150.77,27.31L150.77,27.31z"/>
	<path class="st0" d="M165.76,27.76V26.5l1.24-0.14c0.28-0.04,0.32-0.1,0.32-0.39v-4.69h-6.23v4.67c0,0.31,0.02,0.36,0.32,0.39
		l1.32,0.16v1.26h-5.5V26.5l1.24-0.14c0.28-0.04,0.32-0.1,0.32-0.39V15.28c0-0.29-0.04-0.38-0.32-0.39l-1.24-0.14v-1.26h5.5v1.26
		l-1.32,0.16c-0.3,0.04-0.32,0.08-0.32,0.38v4.26h6.23v-4.26c0-0.29-0.04-0.38-0.32-0.39l-1.24-0.14v-1.26h5.42v1.26l-1.24,0.16
		c-0.3,0.04-0.32,0.08-0.32,0.38v10.67c0,0.31,0.02,0.36,0.32,0.39l1.24,0.16v1.26H165.76L165.76,27.76z"/>
	<path class="st0" d="M178.64,21.63c0-1.93-0.89-2.54-1.95-2.54c-1.12,0-2.09,0.75-2.19,2.54H178.64L178.64,21.63z M180.73,27.08
		c-1.08,0.55-2.34,0.93-3.79,0.93c-3.67,0-4.87-2.35-4.87-5.38c0-3.57,2.07-5.25,4.66-5.25c2.48,0,4.18,1.32,4.18,4.75
		c0,0.26-0.02,0.77-0.06,1.14h-6.37c0.1,1.83,0.81,2.92,2.72,2.92c0.97,0,1.71-0.2,2.9-0.69L180.73,27.08L180.73,27.08z"/>
	<path class="st0" d="M188.13,23.33l-1.88,0.16c-1.48,0.14-1.93,0.55-1.93,1.5c0,0.95,0.45,1.26,1.26,1.26
		c0.97,0,1.96-0.59,2.55-1.18V23.33L188.13,23.33z M188.54,27.76l-0.19-1.16l-0.06-0.02c-0.87,0.83-1.93,1.42-3.47,1.42
		c-2.49,0-2.82-1.7-2.82-2.8c0-1.97,1.22-2.92,3.63-3.12l2.51-0.2v-1c0-1.24-0.22-1.91-1.74-1.91c-1.08,0-1.81,0.08-1.81,1.44
		l-2.13-0.2c0-2.52,2.3-2.84,3.98-2.84c2.86,0,3.93,0.81,3.93,3.53v5.07c0,0.31,0.02,0.35,0.31,0.39l0.96,0.14v1.26H188.54
		L188.54,27.76z"/>
	<path class="st0" d="M192.52,27.76v-1.24l1.12-0.16c0.28-0.04,0.32-0.1,0.32-0.39V14.92c0-0.22-0.06-0.35-0.26-0.41l-1.13-0.38
		l0.2-1.26h3.45v13.1c0,0.31,0.02,0.35,0.32,0.39l1.11,0.14v1.26H192.52L192.52,27.76z"/>
	<path class="st0" d="M205.72,27.31c-0.8,0.38-1.87,0.69-2.92,0.69c-2.07,0-2.94-0.91-2.94-2.86v-5.76c0-0.12,0-0.2-0.16-0.2h-1.42
		v-1.4c1.54-0.2,2.15-1.24,2.41-2.98h1.44v2.56c0,0.14,0,0.2,0.15,0.2h2.86v1.62h-3.02v5.37c0,1.22,0.32,1.68,1.42,1.68
		c0.59,0,1.2-0.16,1.72-0.34L205.72,27.31L205.72,27.31z"/>
	<path class="st0" d="M213.12,27.76v-1.24l0.93-0.14c0.32-0.04,0.34-0.16,0.34-0.41v-4.58c0-0.93-0.1-2.17-1.4-2.17
		c-0.96,0-1.97,0.55-2.7,1.06v5.68c0,0.31,0.02,0.35,0.32,0.39l1.04,0.14v1.26h-4.89v-1.24l0.95-0.16c0.28-0.04,0.32-0.1,0.32-0.39
		V14.92c0-0.22-0.06-0.35-0.25-0.41l-1.13-0.38l0.2-1.26h3.43v5.76c0.99-0.67,2.03-1.26,3.41-1.26c2.13,0,2.98,1.4,2.98,3.57v5.03
		c0,0.31,0.02,0.35,0.32,0.39l1.09,0.14v1.26H213.12L213.12,27.76z"/>
</g>
</svg>
